<svg xmlns="http://www.w3.org/2000/svg" viewBox="0 0 2400 560" preserveAspectRatio="xMidYMax meet" class="hero-park" aria-hidden="true">
<defs><linearGradient id="pGround" x1="0" y1="0" x2="0" y2="1"><stop offset="0" stop-color="#7fd6a4"/><stop offset="1" stop-color="#4fb884"/></linearGradient><linearGradient id="pRoad" x1="0" y1="0" x2="0" y2="1"><stop offset="0" stop-color="#867f9b"/><stop offset="1" stop-color="#4b4759"/></linearGradient></defs>
<g opacity=".8"><rect x="75.7" y="278.4" width="8.7" height="53.9" rx="3.7" fill="#8a5a3c"/><path d="M45.3 282.1 q-5.6 -21.1 14.9 -27.3 q3.7 -23.6 19.8 -23.6 q21.1 0 20.5 24.8 q19.2 7.4 14.3 26.0 z" fill="#57c48d"/><path d="M45.3 282.1 q34.7 9.9 69.4 -1.2" fill="none" stroke="#3da675" stroke-width="4.3" opacity=".55"/><rect x="296.1" y="284.0" width="7.7" height="48.7" rx="3.3" fill="#8a5a3c"/><path d="M269.2 287.3 q-5.0 -18.7 13.2 -24.2 q3.3 -20.9 17.6 -20.9 q18.7 0 18.2 22.0 q17.1 6.6 12.7 23.1 z" fill="#57c48d"/><path d="M269.2 287.3 q30.8 8.8 61.6 -1.1" fill="none" stroke="#3da675" stroke-width="3.9" opacity=".55"/><rect x="555.8" y="280.0" width="8.4" height="52.4" rx="3.6" fill="#8a5a3c"/><path d="M526.4 283.6 q-5.4 -20.4 14.4 -26.4 q3.6 -22.8 19.2 -22.8 q20.4 0 19.8 24.0 q18.6 7.2 13.8 25.2 z" fill="#57c48d"/><path d="M526.4 283.6 q33.6 9.6 67.2 -1.2" fill="none" stroke="#3da675" stroke-width="4.2" opacity=".55"/><rect x="816.4" y="286.4" width="7.3" height="46.5" rx="3.1" fill="#8a5a3c"/><path d="M790.9 289.5 q-4.7 -17.7 12.5 -22.9 q3.1 -19.8 16.6 -19.8 q17.7 0 17.2 20.8 q16.1 6.2 12.0 21.8 z" fill="#57c48d"/><path d="M790.9 289.5 q29.1 8.3 58.2 -1.0" fill="none" stroke="#3da675" stroke-width="3.6" opacity=".55"/><rect x="1045.9" y="281.6" width="8.1" height="50.9" rx="3.5" fill="#8a5a3c"/><path d="M1017.5 285.1 q-5.2 -19.7 13.9 -25.5 q3.5 -22.0 18.6 -22.0 q19.7 0 19.1 23.2 q18.0 7.0 13.3 24.4 z" fill="#57c48d"/><path d="M1017.5 285.1 q32.5 9.3 65.0 -1.2" fill="none" stroke="#3da675" stroke-width="4.1" opacity=".55"/><rect x="1176.8" y="291.2" width="6.4" height="42.0" rx="2.8" fill="#8a5a3c"/><path d="M1154.2 294.0 q-4.1 -15.6 11.0 -20.2 q2.8 -17.5 14.7 -17.5 q15.6 0 15.2 18.4 q14.3 5.5 10.6 19.3 z" fill="#57c48d"/><path d="M1154.2 294.0 q25.8 7.4 51.5 -0.9" fill="none" stroke="#3da675" stroke-width="3.2" opacity=".55"/><rect x="1555.8" y="280.0" width="8.4" height="52.4" rx="3.6" fill="#8a5a3c"/><path d="M1526.4 283.6 q-5.4 -20.4 14.4 -26.4 q3.6 -22.8 19.2 -22.8 q20.4 0 19.8 24.0 q18.6 7.2 13.8 25.2 z" fill="#57c48d"/><path d="M1526.4 283.6 q33.6 9.6 67.2 -1.2" fill="none" stroke="#3da675" stroke-width="4.2" opacity=".55"/><rect x="1896.5" y="288.0" width="7.0" height="45.0" rx="3.0" fill="#8a5a3c"/><path d="M1872.0 291.0 q-4.5 -17.0 12.0 -22.0 q3.0 -19.0 16.0 -19.0 q17.0 0 16.5 20.0 q15.5 6.0 11.5 21.0 z" fill="#57c48d"/><path d="M1872.0 291.0 q28.0 8.0 56.0 -1.0" fill="none" stroke="#3da675" stroke-width="3.5" opacity=".55"/><rect x="2166.2" y="284.0" width="7.7" height="48.7" rx="3.3" fill="#8a5a3c"/><path d="M2139.2 287.3 q-5.0 -18.7 13.2 -24.2 q3.3 -20.9 17.6 -20.9 q18.7 0 18.2 22.0 q17.1 6.6 12.7 23.1 z" fill="#57c48d"/><path d="M2139.2 287.3 q30.8 8.8 61.6 -1.1" fill="none" stroke="#3da675" stroke-width="3.9" opacity=".55"/><rect x="2375.7" y="278.4" width="8.7" height="53.9" rx="3.7" fill="#8a5a3c"/><path d="M2345.3 282.1 q-5.6 -21.1 14.9 -27.3 q3.7 -23.6 19.8 -23.6 q21.1 0 20.5 24.8 q19.2 7.4 14.3 26.0 z" fill="#57c48d"/><path d="M2345.3 282.1 q34.7 9.9 69.4 -1.2" fill="none" stroke="#3da675" stroke-width="4.3" opacity=".55"/></g>
<g stroke="#3a2a52" stroke-width="7" stroke-linejoin="round" stroke-linecap="round"><path d="M1324 150 L1242 322 h30 L1330 158 L1388 322 h30 L1336 150 z" fill="#0b8a94"/><rect x="1226" y="308" width="208" height="26" rx="13" fill="#6d2e91"/><line x1="1330" y1="150" x2="1442.0" y2="150.0" stroke="#fff6fb" stroke-width="5"/><line x1="1330" y1="150" x2="1433.5" y2="192.9" stroke="#fff6fb" stroke-width="5"/><line x1="1330" y1="150" x2="1409.2" y2="229.2" stroke="#fff6fb" stroke-width="5"/><line x1="1330" y1="150" x2="1372.9" y2="253.5" stroke="#fff6fb" stroke-width="5"/><line x1="1330" y1="150" x2="1330.0" y2="262.0" stroke="#fff6fb" stroke-width="5"/><line x1="1330" y1="150" x2="1287.1" y2="253.5" stroke="#fff6fb" stroke-width="5"/><line x1="1330" y1="150" x2="1250.8" y2="229.2" stroke="#fff6fb" stroke-width="5"/><line x1="1330" y1="150" x2="1226.5" y2="192.9" stroke="#fff6fb" stroke-width="5"/><line x1="1330" y1="150" x2="1218.0" y2="150.0" stroke="#fff6fb" stroke-width="5"/><line x1="1330" y1="150" x2="1226.5" y2="107.1" stroke="#fff6fb" stroke-width="5"/><line x1="1330" y1="150" x2="1250.8" y2="70.8" stroke="#fff6fb" stroke-width="5"/><line x1="1330" y1="150" x2="1287.1" y2="46.5" stroke="#fff6fb" stroke-width="5"/><line x1="1330" y1="150" x2="1330.0" y2="38.0" stroke="#fff6fb" stroke-width="5"/><line x1="1330" y1="150" x2="1372.9" y2="46.5" stroke="#fff6fb" stroke-width="5"/><line x1="1330" y1="150" x2="1409.2" y2="70.8" stroke="#fff6fb" stroke-width="5"/><line x1="1330" y1="150" x2="1433.5" y2="107.1" stroke="#fff6fb" stroke-width="5"/><circle cx="1330" cy="150" r="112" fill="none" stroke="#12aebb" stroke-width="11"/><circle cx="1330" cy="150" r="90" fill="none" stroke="#12aebb" stroke-width="7"/><rect x="1315.0" y="31.0" width="30" height="26" rx="11" fill="#ff4f9d"/><rect x="1371.0" y="46.0" width="30" height="26" rx="11" fill="#f8a824"/><rect x="1412.0" y="87.0" width="30" height="26" rx="11" fill="#c53fb4"/><rect x="1427.0" y="143.0" width="30" height="26" rx="11" fill="#fff6fb"/><rect x="1412.0" y="199.0" width="30" height="26" rx="11" fill="#ff4f9d"/><rect x="1371.0" y="240.0" width="30" height="26" rx="11" fill="#f8a824"/><rect x="1315.0" y="255.0" width="30" height="26" rx="11" fill="#c53fb4"/><rect x="1259.0" y="240.0" width="30" height="26" rx="11" fill="#fff6fb"/><rect x="1218.0" y="199.0" width="30" height="26" rx="11" fill="#ff4f9d"/><rect x="1203.0" y="143.0" width="30" height="26" rx="11" fill="#f8a824"/><rect x="1218.0" y="87.0" width="30" height="26" rx="11" fill="#c53fb4"/><rect x="1259.0" y="46.0" width="30" height="26" rx="11" fill="#fff6fb"/><circle cx="1330" cy="150" r="20" fill="#f8a824"/><path d="M1700 132 L1612.0 200.0 L1629.6 200.0 z" fill="#c53fb4"/><path d="M1700 132 L1629.6 200.0 L1647.2 200.0 z" fill="#fff6fb"/><path d="M1700 132 L1647.2 200.0 L1664.8 200.0 z" fill="#c53fb4"/><path d="M1700 132 L1664.8 200.0 L1682.4 200.0 z" fill="#fff6fb"/><path d="M1700 132 L1682.4 200.0 L1700.0 200.0 z" fill="#c53fb4"/><path d="M1700 132 L1700.0 200.0 L1717.6 200.0 z" fill="#fff6fb"/><path d="M1700 132 L1717.6 200.0 L1735.2 200.0 z" fill="#c53fb4"/><path d="M1700 132 L1735.2 200.0 L1752.8 200.0 z" fill="#fff6fb"/><path d="M1700 132 L1752.8 200.0 L1770.4 200.0 z" fill="#c53fb4"/><path d="M1700 132 L1770.4 200.0 L1788.0 200.0 z" fill="#fff6fb"/><path d="M1700 132 L1612 200 q88 26 176 0 z" fill="none" stroke="#3a2a52" stroke-width="7" stroke-linejoin="round"/><path d="M1612 200 q88 26 176 0 l0 16 q-88 26 -176 0 z" fill="#f8a824"/><rect x="1633" y="218" width="10" height="94" rx="5" fill="#e08a0c"/><circle cx="1638" cy="260" r="17" fill="#12aebb" stroke="#3a2a52" stroke-width="6"/><rect x="1695" y="218" width="10" height="94" rx="5" fill="#e08a0c"/><circle cx="1700" cy="260" r="17" fill="#12aebb" stroke="#3a2a52" stroke-width="6"/><rect x="1757" y="218" width="10" height="94" rx="5" fill="#e08a0c"/><circle cx="1762" cy="260" r="17" fill="#12aebb" stroke="#3a2a52" stroke-width="6"/><rect x="1604" y="300" width="192" height="26" rx="13" fill="#6d2e91"/><rect x="1696" y="86" width="8" height="50" fill="#3a2a52"/><path d="M1704 88 l40 13 -40 13 z" fill="#ff4f9d" stroke="#3a2a52" stroke-width="5"/><rect x="1999" y="116" width="22" height="206" rx="9" fill="#0b8a94"/><path d="M1999 140 l22 22 M2021 140 l-22 22" stroke="#fff6fb" stroke-width="4" fill="none" opacity=".7"/><path d="M1999 174 l22 22 M2021 174 l-22 22" stroke="#fff6fb" stroke-width="4" fill="none" opacity=".7"/><path d="M1999 208 l22 22 M2021 208 l-22 22" stroke="#fff6fb" stroke-width="4" fill="none" opacity=".7"/><path d="M1999 242 l22 22 M2021 242 l-22 22" stroke="#fff6fb" stroke-width="4" fill="none" opacity=".7"/><path d="M1999 276 l22 22 M2021 276 l-22 22" stroke="#fff6fb" stroke-width="4" fill="none" opacity=".7"/><path d="M2010 180 L1936 198" stroke="#0b8a94" stroke-width="16" stroke-linecap="round"/><path d="M2010 180 L1936 198" stroke="#3a2a52" stroke-width="7" fill="none" stroke-linecap="round"/><path d="M1936 184 c22 0 30 22 30 42 0 18 -14 30 -30 30 s-30 -12 -30 -30 c0 -20 8 -42 30 -42 z" fill="#ff4f9d"/><circle cx="1936" cy="224" r="10" fill="#fff6fb"/><path d="M2010 180 L2084 198" stroke="#0b8a94" stroke-width="16" stroke-linecap="round"/><path d="M2010 180 L2084 198" stroke="#3a2a52" stroke-width="7" fill="none" stroke-linecap="round"/><path d="M2084 184 c22 0 30 22 30 42 0 18 -14 30 -30 30 s-30 -12 -30 -30 c0 -20 8 -42 30 -42 z" fill="#ff4f9d"/><circle cx="2084" cy="224" r="10" fill="#fff6fb"/><path d="M2010 58 c22 22 30 46 30 66 h-60 c0 -20 8 -44 30 -66 z" fill="#f8a824"/><path d="M1980 124 l-19 24 19 0 z M2040 124 l19 24 -19 0 z" fill="#c53fb4"/><circle cx="2010" cy="98" r="11" fill="#12aebb"/><rect x="1952" y="306" width="116" height="28" rx="14" fill="#6d2e91"/><rect x="2280" y="124" width="20" height="188" rx="8" fill="#9c2d90"/><path d="M2290 74 l86 50 h-172 z" fill="#12aebb"/><path d="M2204 124 h172 l0 14 h-172 z" fill="#f8a824"/><line x1="2290" y1="130" x2="2218" y2="184" stroke="#3a2a52" stroke-width="4"/><rect x="2207" y="184" width="22" height="16" rx="7" fill="#ff4f9d" stroke="#3a2a52" stroke-width="5"/><line x1="2290" y1="130" x2="2254" y2="194" stroke="#3a2a52" stroke-width="4"/><rect x="2243" y="194" width="22" height="16" rx="7" fill="#ff4f9d" stroke="#3a2a52" stroke-width="5"/><line x1="2290" y1="130" x2="2290" y2="184" stroke="#3a2a52" stroke-width="4"/><rect x="2279" y="184" width="22" height="16" rx="7" fill="#ff4f9d" stroke="#3a2a52" stroke-width="5"/><line x1="2290" y1="130" x2="2326" y2="194" stroke="#3a2a52" stroke-width="4"/><rect x="2315" y="194" width="22" height="16" rx="7" fill="#ff4f9d" stroke="#3a2a52" stroke-width="5"/><line x1="2290" y1="130" x2="2362" y2="184" stroke="#3a2a52" stroke-width="4"/><rect x="2351" y="184" width="22" height="16" rx="7" fill="#ff4f9d" stroke="#3a2a52" stroke-width="5"/><rect x="2242" y="308" width="96" height="26" rx="13" fill="#6d2e91"/></g>
<g stroke="#3a2a52" stroke-width="7" stroke-linejoin="round"><rect x="414.4" y="278.0" width="11.2" height="67.2" rx="4.8" fill="#8a5a3c"/><path d="M375.2 282.8 q-7.2 -27.2 19.2 -35.2 q4.8 -30.4 25.6 -30.4 q27.2 0 26.4 32.0 q24.8 9.6 18.4 33.6 z" fill="#57c48d"/><path d="M375.2 282.8 q44.8 12.8 89.6 -1.6" fill="none" stroke="#3da675" stroke-width="5.6" opacity=".55"/><rect x="895.0" y="284.4" width="10.1" height="61.3" rx="4.3" fill="#8a5a3c"/><path d="M859.7 288.7 q-6.5 -24.5 17.3 -31.7 q4.3 -27.4 23.0 -27.4 q24.5 0 23.8 28.8 q22.3 8.6 16.6 30.2 z" fill="#57c48d"/><path d="M859.7 288.7 q40.3 11.5 80.6 -1.4" fill="none" stroke="#3da675" stroke-width="5.0" opacity=".55"/><rect x="1515.2" y="287.6" width="9.5" height="58.3" rx="4.1" fill="#8a5a3c"/><path d="M1481.9 291.7 q-6.1 -23.1 16.3 -29.9 q4.1 -25.8 21.8 -25.8 q23.1 0 22.4 27.2 q21.1 8.2 15.6 28.6 z" fill="#57c48d"/><path d="M1481.9 291.7 q38.1 10.9 76.2 -1.4" fill="none" stroke="#3da675" stroke-width="4.8" opacity=".55"/><rect x="2115.1" y="286.0" width="9.8" height="59.8" rx="4.2" fill="#8a5a3c"/><path d="M2080.8 290.2 q-6.3 -23.8 16.8 -30.8 q4.2 -26.6 22.4 -26.6 q23.8 0 23.1 28.0 q21.7 8.4 16.1 29.4 z" fill="#57c48d"/><path d="M2080.8 290.2 q39.2 11.2 78.4 -1.4" fill="none" stroke="#3da675" stroke-width="4.9" opacity=".55"/></g>
<path d="M0 334 q600 -22 1200 -4 t1200 -6 V560 H0 z" fill="url(#pGround)"/>
<path d="M-40 560 L2440 560 L1776 360 L624 360 z" fill="url(#pRoad)"/>
<path d="M-40 560 L2440 560 L1776 360 L624 360 z" fill="none" stroke="#3a2a52" stroke-width="6" opacity=".45"/>
<path d="M-40 560 L624 360" stroke="#fff6fb" stroke-width="9" opacity=".6"/>
<path d="M2440 560 L1776 360" stroke="#fff6fb" stroke-width="9" opacity=".6"/>
<path d="M1196.7 366.0 L1203.3 366.0" stroke="#fff6fb" stroke-width="4.2" opacity=".75" stroke-linecap="round"/>
<path d="M1195.9 381.9 L1204.1 381.9" stroke="#fff6fb" stroke-width="4.9" opacity=".75" stroke-linecap="round"/>
<path d="M1195.0 400.2 L1205.0 400.2" stroke="#fff6fb" stroke-width="5.6" opacity=".75" stroke-linecap="round"/>
<path d="M1193.9 421.2 L1206.1 421.2" stroke="#fff6fb" stroke-width="6.4" opacity=".75" stroke-linecap="round"/>
<path d="M1192.7 445.4 L1207.3 445.4" stroke="#fff6fb" stroke-width="7.4" opacity=".75" stroke-linecap="round"/>
<path d="M1191.3 473.2 L1208.7 473.2" stroke="#fff6fb" stroke-width="8.5" opacity=".75" stroke-linecap="round"/>
<path d="M1189.7 505.2 L1210.3 505.2" stroke="#fff6fb" stroke-width="9.8" opacity=".75" stroke-linecap="round"/>
<path d="M1187.9 542.0 L1212.1 542.0" stroke="#fff6fb" stroke-width="11.3" opacity=".75" stroke-linecap="round"/>
</svg>